<?xml version="1.0" encoding="utf-8"?>
<!-- Generator: Adobe Illustrator 27.7.0, SVG Export Plug-In . SVG Version: 6.00 Build 0)  -->
<svg version="1.1" id="Layer_1" xmlns="http://www.w3.org/2000/svg" xmlns:xlink="http://www.w3.org/1999/xlink" x="0px" y="0px"
	 viewBox="0 0 115.8 21.8" style="enable-background:new 0 0 115.8 21.8;" xml:space="preserve">
<g id="Path_5_00000026844946122701069850000009972935283245652622_">
	<path d="M10.8,21.5V0.6h4.4v20.9H10.8z M15,21.5v-3.7h1.8c2.1,0,3.8-0.5,4.8-1.6s1.6-2.7,1.6-4.8c0-2.3-0.5-4.1-1.6-5.3
		c-1.1-1.2-2.7-1.8-4.8-1.8H15l-0.4-3.7h2.2c7.3,0,11,3.6,11,10.7c0,6.8-3.7,10.2-11,10.2H15z"/>
	<path d="M29.1,21.5l6.8-20.9h5.4L48,21.5h-4.7L38.7,5.7h-0.3l-4.6,15.8H29.1z M32.5,17.5v-3.6h11.9v3.6H32.5z"/>
	<path d="M55,21.5L48.9,0.6h4.5L58.2,18h0.3l4.8-17.4h4.5l-6.1,20.9H55z"/>
	<path d="M70.8,4.1V0.6h14.8v3.5H70.8z M70.8,21.5V18h14.8v3.5H70.8z M76,21.5V0.6h4.4v20.9H76z"/>
	<path d="M90.2,21.5V0.6h4.4v20.9H90.2z M94.3,21.5v-3.7h1.8c2.1,0,3.8-0.5,4.8-1.6s1.6-2.7,1.6-4.8c0-2.3-0.5-4.1-1.6-5.3
		c-1.1-1.2-2.7-1.8-4.8-1.8h-1.8L94,0.6h2.2c7.3,0,11,3.6,11,10.7c0,6.8-3.7,10.2-11,10.2H94.3z"/>
</g>
</svg>
